<?xml version="1.0" encoding="UTF-8"?>
<svg version="1.1" xmlns="http://www.w3.org/2000/svg" width="1530" height="790">
<path d="M0 0 C504.9 0 1009.8 0 1530 0 C1530 260.7 1530 521.4 1530 790 C1025.1 790 520.2 790 0 790 C0 529.3 0 268.6 0 0 Z " fill="#F3F3F4" transform="translate(0,0)"/>
<path d="M0 0 C6.66074855 0.39424991 13.30971668 0.80325082 19.9453125 1.51171875 C30.3999165 2.61194602 40.73298703 3.18678025 51.25 3.1875 C52.36793945 3.1882251 53.48587891 3.1889502 54.63769531 3.18969727 C61.14703318 3.146217 67.53786715 2.7882641 74 2 C75.14969055 7.06835409 76.2403927 12.14244237 77.26171875 17.23828125 C85.05152418 71.13287767 85.05152418 71.13287767 107 119 C114.0551165 95.56520471 120.1722271 72.30551135 123.70019531 48.04394531 C124.1307054 45.10890424 124.59911707 42.18000588 125.0625 39.25 C126.69900796 28.48996019 128.13940634 17.79866737 128.75390625 6.92578125 C128.95933901 4.48341403 129.31039982 2.34236095 130 0 C135.7047581 0.38919355 141.39998398 0.78099627 147.07421875 1.49414062 C159.97260538 3.08792965 172.70491674 3.2359533 185.6875 3.125 C187.76887583 3.11493485 189.85025645 3.10581534 191.93164062 3.09765625 C196.95454895 3.07595792 201.97721897 3.04162968 207 3 C206.88249781 4.91714093 206.75545257 6.83369673 206.625 8.75 C206.52058594 10.35101563 206.52058594 10.35101563 206.4140625 11.984375 C206.13191123 15.26097123 205.59642778 18.46438857 205.03027344 21.70336914 C203.98949027 27.78764267 203.35295451 33.84294707 202.890625 39.99609375 C202.80653381 41.11181259 202.72244263 42.22753143 202.63580322 43.37705994 C201.74124807 56.26903634 201.69218273 69.14512143 201.75 82.0625 C201.75310181 83.30557922 201.75620361 84.54865845 201.75939941 85.82940674 C201.83456439 111.60810083 203.09415505 136.99875698 205.9375 162.625 C206.01681763 163.34476013 206.09613525 164.06452026 206.17785645 164.80609131 C207.28188705 174.65230562 208.9430916 184.30380646 211 194 C211.45327816 196.2403293 211.90390065 198.48119794 212.3515625 200.72265625 C212.99404861 203.92137521 213.63660475 207.12007475 214.28125 210.31835938 C214.59449219 211.87973633 214.59449219 211.87973633 214.9140625 213.47265625 C215.0992041 214.39312744 215.2843457 215.31359863 215.47509766 216.26196289 C216.03212594 219.16757785 216.52465841 222.08000616 217 225 C216.06730537 224.99333817 216.06730537 224.99333817 215.11576843 224.98654175 C208.54375549 224.94170612 201.97178713 224.91188865 195.3996582 224.89013672 C192.95888499 224.88018421 190.51812337 224.86661737 188.07739258 224.84912109 C173.55784901 224.74777343 159.40016202 225.11024333 145 227 C143.0695635 227.21594053 141.13866225 227.42783182 139.20703125 227.6328125 C137.74212086 227.7962789 136.27727193 227.96029753 134.8125 228.125 C134.03970703 228.21136719 133.26691406 228.29773438 132.47070312 228.38671875 C130.64707461 228.59060268 128.82352668 228.79520728 127 229 C127.67087148 225.24707104 128.69812865 221.74870693 129.8984375 218.1328125 C132.17698076 210.8073062 133.4950699 203.45002744 134.625 195.875 C134.73016937 195.18801025 134.83533875 194.50102051 134.94369507 193.79321289 C137.86907634 174.57805368 139.15341359 155.42619012 139 136 C126.24620217 165.27157992 114.95063756 195.01209185 104 225 C101.16322988 222.16322988 100.29310132 218.70715623 98.98046875 214.99609375 C98.37036861 213.30378969 97.76026086 211.61148838 97.15014648 209.91918945 C96.83020721 209.02511383 96.51026794 208.13103821 96.18063354 207.20986938 C90.96991299 192.66394832 85.61990912 178.18097753 79.9375 163.8125 C79.67858978 163.15547089 79.41967957 162.49844177 79.15292358 161.82150269 C75.59700383 152.80954363 71.85872944 143.88591731 68 135 C68.87172227 154.78517449 71.28055475 174.34168162 74.5 193.875 C74.70141602 195.10371826 74.90283203 196.33243652 75.11035156 197.59838867 C76.24789929 204.29449123 77.62633558 210.83395419 79.43164062 217.38330078 C80.00151671 220.00698288 80.1039957 222.32452929 80 225 C78.80850342 224.98952637 77.61700684 224.97905273 76.3894043 224.96826172 C48.391025 224.74402632 20.77309025 225.00203601 -7 229 C-6.42453863 223.6184876 -5.50112103 218.42399271 -4.33740234 213.13989258 C-1.19145814 198.84841876 1.22339024 184.52426235 3 170 C3.15243164 168.78135254 3.30486328 167.56270508 3.46191406 166.30712891 C6.17389045 143.40176466 6.26776004 120.46991887 6.25 97.4375 C6.24973312 96.68296791 6.24946625 95.92843582 6.24919128 95.15103912 C6.23552035 70.70700134 5.58877698 46.70255206 2.4375 22.4375 C2.08559684 19.67847312 1.73581498 16.91919188 1.38771057 14.15968323 C1.17333846 12.46544879 0.95645441 10.77152968 0.73667908 9.07798767 C0.34608895 6.02962244 0 3.07692585 0 0 Z " fill="#56018A" transform="translate(813,160)"/>
<path d="M0 0 C0.59734451 0.06851669 1.19468903 0.13703339 1.81013489 0.20762634 C3.00203682 0.34256248 3.00203682 0.34256248 4.21801758 0.48022461 C5.00098709 0.5693663 5.7839566 0.658508 6.59065247 0.75035095 C22.02763713 2.34988297 37.70700181 2.12330226 53.20913696 2.17623901 C55.20571353 2.18363278 57.20228135 2.19421141 59.19882202 2.20828247 C72.59865335 2.293831 85.69431731 1.60369639 99 0 C99.13462646 1.66325317 99.13462646 1.66325317 99.27197266 3.36010742 C101.38746285 29.13826487 104.34102842 54.5554595 109 80 C109.21269531 81.17143555 109.42539062 82.34287109 109.64453125 83.54980469 C113.85688538 106.41201704 119.18759539 129.10890436 126.17016602 151.28662109 C126.99893964 153.99653285 127.78077893 156.71816132 128.56083679 159.44241333 C132.41813674 172.83616239 136.96783124 186.00123041 141.4387207 199.19970703 C142.52152168 202.40010635 143.59891578 205.60228709 144.67578125 208.8046875 C145.01007645 209.78581512 145.34437164 210.76694275 145.688797 211.77780151 C145.99299057 212.68370026 146.29718414 213.589599 146.6105957 214.52294922 C146.87975296 215.31772675 147.14891022 216.11250427 147.42622375 216.93136597 C148 219 148 219 148 222 C148.66 222 149.32 222 150 222 C152.95924124 208.19302587 155.65783571 194.52837292 156.78955078 180.44384766 C157.00694011 177.91940781 157.27930614 175.40501695 157.55859375 172.88671875 C161.8148098 131.88902473 162.98383844 82.86040682 151 43 C153.39614575 43.14165893 155.79182897 43.28818841 158.1875 43.4375 C159.19780273 43.49647461 159.19780273 43.49647461 160.22851562 43.55664062 C163.00823035 43.73291522 165.70766712 43.93848081 168.436203 44.51268005 C170.95942658 44.99228791 173.22592085 45.12058975 175.7902832 45.11352539 C176.71086014 45.11344986 177.63143707 45.11337433 178.57991028 45.11329651 C179.5602977 45.10813522 180.54068512 45.10297394 181.55078125 45.09765625 C182.56472458 45.0962413 183.57866791 45.09482635 184.62333679 45.09336853 C187.85308821 45.08778328 191.08276962 45.07523345 194.3125 45.0625 C196.50585837 45.0574831 198.69921783 45.05292052 200.89257812 45.04882812 C206.26174253 45.03781868 211.63086626 45.0210952 217 45 C216.40169276 53.87870352 215.44217539 62.6137322 214.10546875 71.40820312 C211.88043701 86.79238724 211.81355687 102.22039868 211.81469727 117.7331543 C211.81251978 121.03252248 211.79431968 124.33155032 211.77539062 127.63085938 C211.72374043 146.84984169 213.18318822 165.78625379 215.875 184.8125 C216.04427002 186.02881104 216.21354004 187.24512207 216.38793945 188.49829102 C217.60205099 196.93108136 219.14960384 205.22038275 221.16796875 213.49609375 C221.91874904 216.65783046 222.48349059 219.79370098 223 223 C221.86498047 222.98428955 220.72996094 222.9685791 219.56054688 222.95239258 C214.20714323 222.88485553 208.85373749 222.84274867 203.5 222.8125 C202.52815765 222.80700134 201.55631531 222.80150269 200.55502319 222.7958374 C186.445292 222.74260466 172.60073127 223.28273273 158.60546875 225.10864258 C151.56062272 225.96166892 145.17681076 225.83894392 138.18525696 224.80870056 C130.29761507 223.67334877 122.45616788 223.6523991 114.5 223.6875 C113.72328949 223.68799347 112.94657898 223.68848694 112.14633179 223.68899536 C99.41208228 223.71361127 87.0016785 224.632111 74.41259766 226.63623047 C70.61986424 227.20809576 66.81452368 227.60192914 63 228 C63.51228967 223.18447706 64.56266976 219.03236519 66.28125 214.50390625 C70.56080545 199.59523754 69.67843387 179.60172429 62.5625 165.875 C60.80412777 162.79929939 59.04549932 160.8486518 56 159 C51.69113503 158.14439354 48.06239337 158.4333902 44.1875 160.5 C34.99481788 171.00592242 35.20244552 185.2413727 35.78710938 198.47558594 C36.32570951 204.86219762 38.16957424 210.88076645 40 217 C40.68720755 219.66177335 41.34054938 222.33114018 42 225 C41.45334686 224.97036163 40.90669373 224.94072327 40.34347534 224.91018677 C26.88674586 224.19756316 13.46845284 223.83970428 -0.00683594 223.86962891 C-2.89523465 223.87503789 -5.78348062 223.86961118 -8.671875 223.86328125 C-19.48989442 223.85982965 -30.21302525 224.1505862 -41 225 C-40.50612194 221.12973359 -40.01503583 217.50550886 -38.6171875 213.85546875 C-38.34076416 213.11071289 -38.06434082 212.36595703 -37.77954102 211.59863281 C-37.48104248 210.80295898 -37.18254395 210.00728516 -36.875 209.1875 C-32.89301433 198.16172816 -29.83993998 186.95756194 -26.92675781 175.60888672 C-26.12742791 172.49621689 -25.31717387 169.38660496 -24.50378418 166.27758789 C-19.55702516 147.31442148 -15.45486487 128.29856222 -12 109 C-11.66572998 107.16453613 -11.66572998 107.16453613 -11.32470703 105.29199219 C-5.01104787 70.37898791 -2.15219521 35.37980805 0 0 Z " fill="#56018A" transform="translate(839,471)"/>
<path d="M0 0 C-0.36351562 1.5778125 -0.36351562 1.5778125 -0.734375 3.1875 C-3.47123264 15.87043162 -4.93167046 28.60312024 -6.1875 41.5 C-6.27181274 42.36399414 -6.35612549 43.22798828 -6.44299316 44.11816406 C-6.98733516 49.74329785 -7.51365664 55.36955474 -8 61 C-8.0893129 61.96572433 -8.17862579 62.93144867 -8.27064514 63.92643738 C-9.0077048 72.45674149 -9.13093682 80.93069264 -9.09765625 89.48828125 C-9.09578524 90.92701671 -9.09436458 92.36575281 -9.09336853 93.80448914 C-9.08959702 97.54440144 -9.07981433 101.28427331 -9.06866455 105.02416992 C-9.05833331 108.85920668 -9.05384613 112.69425014 -9.04882812 116.52929688 C-9.03818578 124.01954944 -9.02117607 131.509769 -9 139 C-7.41117113 136.65509076 -5.82733711 134.30704825 -4.24609375 131.95703125 C-3.80213257 131.30287231 -3.35817139 130.64871338 -2.90075684 129.97473145 C5.6047462 117.30438401 11.59966056 104.51640172 11.4375 89.0625 C11.43427734 88.10118164 11.43105469 87.13986328 11.42773438 86.14941406 C11.28887385 79.08907439 10.05972774 73.39264545 7 67 C7 66.34 7 65.68 7 65 C8.0108667 65.01047363 9.0217334 65.02094727 10.06323242 65.03173828 C36.48598912 65.35643053 36.48598912 65.35643053 62.80224609 63.27001953 C66.86006542 62.77146941 70.93082765 62.39310819 75 62 C74.56429688 62.75539062 74.12859375 63.51078125 73.6796875 64.2890625 C66.17988207 78.15233921 62.83509523 93.16368262 59.9375 108.5625 C56.6919794 125.65890388 50.46025388 137.81510472 37 149 C36.34 149.66 35.68 150.32 35 151 C35.64066406 151.32871094 36.28132813 151.65742188 36.94140625 151.99609375 C47.19756854 157.63621876 52.4744205 164.94051368 56 176 C56.88074308 180.16282841 57.45014578 184.34476902 58 188.5625 C60.63371737 206.84321956 65.08408709 222.85876506 72 240 C72.66701989 241.66652533 73.33377588 243.33315638 74 245 C72.80213867 244.98952637 71.60427734 244.97905273 70.37011719 244.96826172 C65.82246017 244.93139691 61.27481557 244.90886413 56.72705078 244.89013672 C54.77813479 244.88022752 52.82923303 244.86669633 50.88037109 244.84912109 C35.06956385 244.7103582 19.64154437 245.68783955 4 248 C4.06983093 247.38992599 4.13966187 246.77985199 4.21160889 246.15129089 C4.85464806 240.20595457 5.17214403 234.34117719 5.203125 228.36328125 C5.20882507 227.48077194 5.21452515 226.59826263 5.22039795 225.68901062 C5.2297722 223.8344337 5.23635142 221.97984069 5.24023438 220.12524414 C5.24991686 217.33644511 5.281004 214.54839185 5.3125 211.75976562 C5.40875029 195.59403076 4.69822066 178.50499449 -7 166 C-7.66 165.67 -8.32 165.34 -9 165 C-8.9799175 170.64436273 -8.92633071 176.28730519 -8.84741211 181.93115234 C-8.82486022 183.83276527 -8.8099922 185.73449192 -8.80444336 187.63623047 C-8.73831157 206.63131564 -5.81346383 223.86844595 -3 243 C-27.42 243 -51.84 243 -77 243 C-74 233 -74 233 -72.4375 228.5078125 C-62.13938845 197.84143085 -63.52043336 162.27793994 -63.6774292 130.3338623 C-63.69083541 126.64463521 -63.68558624 122.95552925 -63.68057919 119.26628876 C-63.64958342 89.27502035 -64.87532228 59.66674195 -68.5625 29.875 C-68.78659559 28.00009405 -69.00990081 26.12509347 -69.23242188 24.25 C-70.43107785 14.09884402 -70.43107785 14.09884402 -72 4 C-70.28006836 3.97812622 -70.28006836 3.97812622 -68.52539062 3.95581055 C-48.20950481 3.67790683 -28.1802537 3.38993871 -8.06835938 0.26513672 C-5.36803206 -0.08101005 -2.71767228 -0.10213474 0 0 Z " fill="#57018A" transform="translate(1421,145)"/>
<path d="M0 0 C0.99 0.33 1.98 0.66 3 1 C3.91896193 3.59180051 4.62857816 6.05169671 5.26953125 8.71484375 C5.57149666 9.90455528 5.57149666 9.90455528 5.87956238 11.11830139 C6.53659684 13.72169592 7.17474501 16.32932165 7.8125 18.9375 C8.26409286 20.74436107 8.71657173 22.55100092 9.16992188 24.35742188 C11.79640627 34.87293609 14.29733254 45.41448949 16.67114258 55.98999023 C19.10814002 66.73627828 21.89821931 77.38897913 24.6619873 88.0546875 C27.58908151 99.36082669 30.38111116 110.67663307 32.93994141 122.07275391 C34.81449454 130.36971258 36.93224809 138.59138468 39.17285156 146.796875 C39.41229492 147.68632813 39.65173828 148.57578125 39.8984375 149.4921875 C40.11161621 150.26933105 40.32479492 151.04647461 40.54443359 151.84716797 C41 154 41 154 41 158 C20.30652128 158.15162322 -0.29179809 157.79597278 -20.96875 156.86328125 C-23.7817085 156.74088172 -26.59475793 156.62063216 -29.4078064 156.50032043 C-35.36091146 156.24469174 -41.31379408 155.98436309 -47.26654053 155.72052002 C-56.62287031 155.3058994 -65.97960857 154.9010086 -75.33642578 154.49755859 C-78.52603405 154.35992247 -81.71563925 154.22221526 -84.90524292 154.08447266 C-85.69822505 154.0502328 -86.49120718 154.01599294 -87.30821908 153.98071551 C-92.94666789 153.73712039 -98.58505631 153.49215743 -104.22341919 153.24658203 C-125.82256576 152.3061696 -147.42251161 151.38689255 -169.0234375 150.48828125 C-169.73200866 150.45880126 -170.44057981 150.42932127 -171.17062283 150.39894795 C-178.75589185 150.08343702 -186.34119248 149.76869134 -193.92651367 149.45443726 C-201.79544494 149.12841882 -209.66432968 148.8012878 -217.53320312 148.47387695 C-229.35544571 147.98202899 -241.17771195 147.49075388 -253 147 C-249.55337061 144.1968835 -246.17252304 141.82194367 -242.30078125 139.63671875 C-241.18751465 139.00499756 -240.07424805 138.37327637 -238.92724609 137.72241211 C-238.33901062 137.39127411 -237.75077515 137.06013611 -237.14471436 136.71896362 C-234.63313685 135.30504564 -232.12707484 133.8814735 -229.62054443 132.45863342 C-228.32383464 131.72272457 -227.02683499 130.98732624 -225.72955322 130.25242615 C-219.425637 126.68042127 -213.14792493 123.06362927 -206.875 119.4375 C-205.81555176 118.82567871 -204.75610352 118.21385742 -203.66455078 117.58349609 C-200.44274783 115.72282538 -197.2213563 113.86144387 -194 112 C-169.37286804 97.77324289 -169.37286804 97.77324289 -157.5 91 C-141.3263885 81.77150923 -125.19850533 72.46426214 -109.125 63.0625 C-99.85433504 57.64045617 -90.5406335 52.29676016 -81.20953369 46.97976685 C-72.1373459 41.80913722 -63.10427651 36.57488583 -54.09350586 31.29785156 C-45.09557593 26.03667297 -36.04725697 20.86571198 -26.98461914 15.71704102 C-21.80928535 12.77338769 -16.64920321 9.8125839 -11.5546875 6.73046875 C-10.76118896 6.2519043 -9.96769043 5.77333984 -9.15014648 5.28027344 C-7.72222282 4.4137193 -6.29941584 3.53865001 -4.88305664 2.65332031 C-3.29933275 1.69237641 -1.65388889 0.83441362 0 0 Z " fill="#56008A" transform="translate(624,427)"/>
<path d="M0 0 C0.33 0 0.66 0 1 0 C1.16222231 52.64652127 0.75202552 105.28030897 0.16577756 157.92330635 C0.07235284 166.34381896 -0.01585507 174.76438026 -0.10283273 183.18496162 C-0.19917292 192.49953771 -0.29918497 201.81407116 -0.40075874 211.12859154 C-0.44297047 215.00520907 -0.48398005 218.88183615 -0.5238781 222.75847816 C-0.76642264 246.18279937 -1.20567949 269.58741858 -2 293 C-3.5688262 292.69621496 -5.13710415 292.38959795 -6.70515442 292.08183289 C-7.57854871 291.91139812 -8.451943 291.74096334 -9.35180378 291.56536388 C-13.49890615 290.67999826 -17.52475437 289.45674759 -21.57421875 288.20703125 C-22.45995071 287.93791428 -23.34568268 287.6687973 -24.258255 287.39152527 C-27.06938038 286.53629242 -29.87846167 285.6745599 -32.6875 284.8125 C-34.51874687 284.25411981 -36.35012638 283.69617443 -38.18164062 283.13867188 C-42.84131324 281.71920696 -47.49953264 280.29503422 -52.15740967 278.86968994 C-68.58465424 273.84377776 -85.03134531 268.8884925 -101.5 264 C-115.28767142 259.90732033 -129.06323958 255.77904173 -142.81835938 251.578125 C-147.87384075 250.03510957 -152.93577663 248.51404968 -158 247 C-157.1067918 242.8620649 -155.13611006 239.71566487 -152.875 236.1875 C-152.43687988 235.49519287 -151.99875977 234.80288574 -151.54736328 234.08959961 C-147.07997068 227.06031915 -142.51407687 220.09418093 -137.95263672 213.12573242 C-133.25587238 205.94605842 -128.61498765 198.73246847 -124 191.5 C-118.87590185 183.47166766 -113.71446508 175.46993721 -108.5 167.5 C-102.5581543 158.41795703 -96.69180961 149.28975919 -90.85083008 140.14257812 C-85.11201025 131.16044388 -79.30979712 122.22079014 -73.49072266 113.29052734 C-69.75426613 107.54938174 -66.03968149 101.79404158 -62.32080078 96.04150391 C-61.0265446 94.04102883 -59.73038684 92.04180003 -58.43359375 90.04296875 C-52.96578342 81.61120263 -47.53663707 73.15543695 -42.125 64.6875 C-36.13270607 55.31243669 -30.09855774 45.96609419 -24.0234375 36.64453125 C-21.56914207 32.87840315 -19.12819956 29.10386869 -16.69213867 25.32592773 C-12.61709649 19.00964841 -8.51948146 12.70846933 -4.375 6.4375 C-3.73558472 5.4623645 -3.73558472 5.4623645 -3.08325195 4.4675293 C-2.08219865 2.96027678 -1.04496785 1.47714591 0 0 Z " fill="#56008A" transform="translate(211,330)"/>
<path d="M0 0 C2.54897967 2.30044602 4.0059532 4.60839269 5.56640625 7.65625 C6.04650146 8.58614746 6.52659668 9.51604492 7.02124023 10.47412109 C7.52985596 11.47266113 8.03847168 12.47120117 8.5625 13.5 C9.64809166 15.60694906 10.73403381 17.71371757 11.8203125 19.8203125 C12.35946289 20.86993164 12.89861328 21.91955078 13.45410156 23.00097656 C15.58777711 27.14028018 17.76026142 31.25849694 19.9375 35.375 C24.38924913 43.81351166 28.78886618 52.27878979 33.18554688 60.74609375 C36.41700747 66.96599087 39.664939 73.17663943 42.9375 79.375 C46.99622336 87.06380266 51.00269289 94.77910803 55 102.5 C59.4103054 111.01828434 63.84033475 119.52514893 68.31689453 128.00878906 C74.09905849 138.97017036 79.81368145 149.96693754 85.54101562 160.95703125 C87.0687067 163.88817931 88.5967197 166.81915912 90.125 169.75 C90.62644531 170.71164063 91.12789062 171.67328125 91.64453125 172.6640625 C94.70722464 178.53355845 97.78532141 184.39467302 100.875 190.25 C104.95363998 197.98092968 108.9810798 205.7378781 113 213.5 C117.12657415 221.46851863 121.25990637 229.43308884 125.4375 237.375 C126.03268433 238.50893188 126.03268433 238.50893188 126.63989258 239.66577148 C128.46045827 243.12365537 130.30331149 246.56540901 132.203125 249.98046875 C132.54029541 250.59035645 132.87746582 251.20024414 133.22485352 251.82861328 C134.11542981 253.43268958 135.01625622 255.03106351 135.91796875 256.62890625 C136.27503906 257.41136719 136.63210938 258.19382812 137 259 C136.67 259.66 136.34 260.32 136 261 C135.45923828 260.67950684 134.91847656 260.35901367 134.36132812 260.02880859 C114.21737315 248.09524599 94.00009165 236.29259809 73.71191406 224.60595703 C65.47201572 219.85689543 57.25402255 215.07128205 49.04345703 210.27172852 C41.67026064 205.96514731 34.27579335 201.69644712 26.875 197.4375 C17.98823823 192.32183454 9.14149121 187.14433983 0.32324219 181.91162109 C-7.8093075 177.09401723 -15.99491871 172.37084867 -24.1875 167.65625 C-31.47301307 163.46234354 -38.74263204 159.24240918 -46 155 C-54.46224284 150.05369524 -62.9436391 145.14180392 -71.4375 140.25 C-80.66717952 134.93226011 -89.88064041 129.5907853 -99.04003906 124.15283203 C-101.14000884 122.91764801 -103.25261677 121.70609291 -105.3671875 120.49609375 C-106.76569935 119.68502401 -108.16413962 118.87383085 -109.5625 118.0625 C-110.21307373 117.69656738 -110.86364746 117.33063477 -111.53393555 116.95361328 C-113.31640625 115.91015625 -113.31640625 115.91015625 -116 114 C-116 111 -116 111 -114.84179688 109.48535156 C-114.03838867 108.69596191 -114.03838867 108.69596191 -113.21875 107.890625 C-112.33316406 107.01180664 -112.33316406 107.01180664 -111.4296875 106.11523438 C-110.79289063 105.49970703 -110.15609375 104.88417969 -109.5 104.25 C-108.52933594 103.29577148 -108.52933594 103.29577148 -107.5390625 102.32226562 C-103.86390681 98.73197799 -100.11236206 95.28458174 -96.1875 91.96875 C-92.34703363 88.51233027 -88.76845378 84.78697405 -85.13500977 81.11547852 C-81.58542182 77.54301767 -77.96842121 74.15395599 -74.12109375 70.90234375 C-71.12860779 68.21847513 -68.32566741 65.35765911 -65.5 62.5 C-62.10993619 59.07155449 -58.74806043 55.67739301 -55.0625 52.5625 C-51.15730021 49.25427342 -47.59719074 45.63486259 -44 42 C-39.8549191 37.81155484 -35.69083638 33.7732928 -31.1875 29.96875 C-27.35164053 26.51647648 -23.77714474 22.79588852 -20.14819336 19.12866211 C-16.47523954 15.43190624 -12.73292227 11.90009294 -8.75390625 8.53125 C-5.68007816 5.84764062 -2.84368541 2.92366406 0 0 Z " fill="#56008A" transform="translate(363,52)"/>
<path d="M0 0 C20.85874937 0.40147104 41.65215974 1.38263394 62.47592163 2.63980103 C79.27390193 3.65083486 96.06779056 4.46091434 112.88341522 5.10866356 C126.71032439 5.6441126 140.51777643 6.34818464 154.32837486 7.20383263 C182.39464375 8.93397603 210.47621304 10.25731837 238.56658936 11.52380371 C244.74437645 11.8030928 250.92198308 12.08632119 257.09960938 12.36914062 C269.06624035 12.91644497 281.03305227 13.45966883 293 14 C293 14.66 293 15.32 293 16 C292.38294189 16.3309668 291.76588379 16.66193359 291.13012695 17.00292969 C279.3397125 23.33560585 267.60108368 29.73740774 256.00024414 36.41162109 C249.27564252 40.27891283 242.52088282 44.08934422 235.75 47.875 C234.70481201 48.45942871 233.65962402 49.04385742 232.58276367 49.64599609 C230.45473989 50.8353922 228.32656531 52.02451853 226.19824219 53.21337891 C220.92242851 56.16058535 215.64835522 59.11089729 210.375 62.0625 C209.33891602 62.64241699 208.30283203 63.22233398 207.23535156 63.81982422 C199.36765084 68.22677152 191.5152491 72.66033137 183.66796875 77.10351562 C176.5829244 81.11254278 169.48131582 85.09132351 162.375 89.0625 C154.72785139 93.33701181 147.09976573 97.6418026 139.5 102 C128.7759683 108.1486497 117.99026205 114.18506266 107.19824219 120.21337891 C101.92242849 123.16058537 96.64836957 126.11092288 91.375 129.0625 C90.3439917 129.6395166 89.3129834 130.2165332 88.25073242 130.81103516 C82.15256198 134.22654743 76.06235396 137.6557443 69.97973633 141.09887695 C67.13091747 142.71127648 64.28043313 144.32069761 61.4296875 145.9296875 C57.82410258 147.96516072 54.22634774 150.01365173 50.6328125 152.0703125 C48.98452792 153.00547791 47.33609836 153.94038786 45.6875 154.875 C44.93412354 155.31038086 44.18074707 155.74576172 43.40454102 156.19433594 C41.6363871 157.19119211 39.82188604 158.10511356 38 159 C37.34 158.67 36.68 158.34 36 158 C35.33325195 155.85229492 35.33325195 155.85229492 34.73828125 152.98046875 C34.51019775 151.91022461 34.28211426 150.83998047 34.04711914 149.73730469 C33.80469482 148.56586914 33.56227051 147.39443359 33.3125 146.1875 C31.23731025 136.49169872 29.01629026 126.85695649 26.5625 117.25 C23.88355253 106.7166474 21.42113509 96.14577992 19.06378174 85.53686523 C16.99428058 76.23757088 14.78449605 66.98337229 12.4375 57.75 C9.26542607 45.2663828 6.42600182 32.72440829 3.69726562 20.13720703 C2.70576268 15.67613809 1.6356435 11.2340902 0.55957031 6.79272461 C0 4 0 4 0 0 Z " fill="#56018A" transform="translate(60,223)"/>
<path d="M0 0 C3.83404835 1.43234259 7.29062018 3.20394594 10.83984375 5.23828125 C12.5403186 6.21075806 12.5403186 6.21075806 14.27514648 7.20288086 C15.49604096 7.9058963 16.71682271 8.60910753 17.9375 9.3125 C19.20705521 10.04119706 20.47666853 10.76979287 21.74633789 11.49829102 C30.9648803 16.79528221 40.1319394 22.17661922 49.2734375 27.60546875 C55.85470314 31.51273301 62.45822289 35.38182579 69.0625 39.25 C70.29809975 39.97387004 71.53369544 40.69774702 72.76928711 41.42163086 C75.2668392 42.88475295 77.76449732 44.34769387 80.26220703 45.81054688 C85.74057987 49.01929537 91.21752247 52.2304835 96.69454956 55.44152832 C99.7129722 57.21112266 102.73149105 58.98055288 105.75 60.75 C106.95833379 61.45833255 108.16666713 62.16666588 109.375 62.875 C109.973125 63.225625 110.57125 63.57625 111.1875 63.9375 C116.62499999 67.12499999 116.62499999 67.12499999 118.43746948 68.18748474 C119.64590148 68.89587416 120.85433654 69.60425835 122.06277466 70.31263733 C125.08212354 72.08256979 128.10141931 73.85259272 131.12060547 75.62280273 C136.57574994 78.82114542 142.03127772 82.01882473 147.48878479 85.21313477 C150.53445116 86.99581038 153.5797943 88.7790376 156.625 90.5625 C157.22535065 90.91407166 157.82570129 91.26564331 158.44424438 91.62786865 C167.21044475 96.76284811 175.95399398 101.93456382 184.6875 107.125 C194.59356957 113.01072334 204.55044274 118.80177154 214.54101562 124.54272461 C222.69228785 129.23120545 230.8004991 133.98883114 238.88598633 138.78979492 C243.56757322 141.56913448 248.26380741 144.31466212 253 147 C249.69249453 154.90530153 241.3822508 160.76165676 234.99609375 166.22265625 C231.93333273 168.94977223 229.09776507 171.89404637 226.21875 174.8125 C223.59228878 177.40196881 220.83023542 179.78836964 218.03125 182.1875 C215.76361428 184.2109288 213.6342305 186.33653347 211.5 188.5 C208.13885518 191.9071879 204.66298797 195.07458174 201.03125 198.1875 C198.76361428 200.2109288 196.6342305 202.33653347 194.5 204.5 C191.13885518 207.9071879 187.66298797 211.07458174 184.03125 214.1875 C181.76361428 216.2109288 179.6342305 218.33653347 177.5 220.5 C174.13885518 223.9071879 170.66298797 227.07458174 167.03125 230.1875 C164.76361428 232.2109288 162.6342305 234.33653347 160.5 236.5 C157.14321963 239.90276366 153.67525119 243.06884729 150.04296875 246.171875 C146.93147166 248.9561592 144.06049922 251.96781435 141.17578125 254.984375 C138.93184133 257.06314161 136.66986047 258.52245901 134 260 C122.30899769 237.88407167 110.8431217 215.65180712 99.39282227 193.41064453 C94.72914253 184.35246609 90.05712135 175.29865986 85.375 166.25 C84.91539383 165.36172516 84.91539383 165.36172516 84.44650269 164.45550537 C82.29807199 160.30346135 80.14908986 156.15170288 78 152 C75.5413043 147.25018744 73.08282825 142.50026148 70.625 137.75 C70.16549957 136.86193665 70.16549957 136.86193665 69.69671631 135.95593262 C64.25845999 125.4442745 58.83736134 114.92382121 53.41955566 104.40161133 C46.57542839 91.10989329 39.71071867 77.82890639 32.83837891 64.55175781 C30.9896287 60.9799626 29.14117523 57.40801408 27.29296875 53.8359375 C26.98514969 53.24101501 26.67733063 52.64609253 26.36018372 52.03314209 C24.50768977 48.45258425 22.65596594 44.87162914 20.80464172 41.29046631 C20.49785995 40.6970343 20.19107819 40.10360229 19.875 39.4921875 C19.56648605 38.8953717 19.25797211 38.29855591 18.94010925 37.68365479 C16.84430636 33.63027073 14.74510387 29.57866026 12.64442444 25.52780151 C11.14586216 22.63721333 9.64894337 19.74577596 8.15231323 16.85418701 C7.42869504 15.45704119 6.70435585 14.06026855 5.97927856 12.66387939 C4.97521642 10.72999863 3.97364987 8.79484538 2.97265625 6.859375 C2.39781494 5.75045898 1.82297363 4.64154297 1.23071289 3.49902344 C0 1 0 1 0 0 Z " fill="#56008A" transform="translate(221,498)"/>
<path d="M0 0 C5.41368529 1.33965279 10.76382419 2.77568885 16.1015625 4.390625 C17.64914317 4.85482552 19.19675163 5.31893339 20.74438477 5.78295898 C21.54208282 6.0227951 22.33978088 6.26263123 23.16165161 6.50973511 C35.46894871 10.20822129 47.78284038 13.82808226 60.20043945 17.14135742 C65.56551327 18.58133624 70.82694482 20.20238557 76.078125 22.01953125 C80.98457862 23.66594817 85.96093349 25.07538937 90.9296875 26.51953125 C94.73170366 27.62505477 98.52694453 28.75187799 102.3203125 29.88671875 C113.18273649 33.13254706 124.04648544 36.32432715 135 39.25 C142.15230497 41.16082344 149.13278327 43.20711281 156 46 C154.48048062 51.82482431 151.43457315 56.25354066 148.125 61.1875 C146.93772412 62.98496552 145.7515508 64.78315974 144.56640625 66.58203125 C143.96715332 67.48904785 143.36790039 68.39606445 142.75048828 69.33056641 C140.13812476 73.31432968 137.59624355 77.3409348 135.0625 81.375 C134.07439973 82.94542639 133.08611557 84.51573709 132.09765625 86.0859375 C131.59637207 86.88225586 131.09508789 87.67857422 130.57861328 88.49902344 C127.73258995 93.00794131 124.86532385 97.50333246 122 102 C117.6526317 108.8245435 113.3165153 115.65589953 109 122.5 C104.09134054 130.28298144 99.15454694 138.04777456 94.2109375 145.80859375 C90.46109303 151.69766667 86.72436771 157.59478596 83 163.5 C78.09134054 171.28298144 73.15454694 179.04777456 68.2109375 186.80859375 C64.46109303 192.69766667 60.72436771 198.59478596 57 204.5 C52.09134054 212.28298144 47.15454694 220.04777456 42.2109375 227.80859375 C38.46109267 233.69766724 34.72448429 239.5948591 31 245.5 C24.36312997 256.01902245 17.69346739 266.51690551 11 277 C10.44763672 277.86689453 9.89527344 278.73378906 9.32617188 279.62695312 C7.78376226 282.04543655 6.23650884 284.46073959 4.6875 286.875 C4.22529053 287.60090332 3.76308105 288.32680664 3.28686523 289.07470703 C2.21816816 290.7341237 1.11323974 292.37013056 0 294 C-0.33 294 -0.66 294 -1 294 C-1.03136613 269.9375064 -1.05122464 245.87501119 -1.0625 221.8125 C-1.0629343 220.91254759 -1.06336861 220.01259519 -1.06381607 219.08537149 C-1.08926538 164.86735509 -0.94716139 110.65375158 -0.5 56.4375 C-0.49402628 55.71129723 -0.48805257 54.98509446 -0.48189783 54.23688555 C-0.33295545 36.15781637 -0.17306531 18.07885529 0 0 Z " fill="#56008A" transform="translate(511,186)"/>
<path d="M0 0 C20.02281365 15.98760376 31.67694487 39.42893521 34.71875 64.7578125 C36.00952453 81.2151878 35.87243971 97.9042196 32 114 C31.83371094 114.70237793 31.66742187 115.40475586 31.49609375 116.12841797 C26.26140861 137.4597599 16.28855748 158.43253237 -2.69140625 170.74609375 C-20.48600992 180.89635843 -41.35496799 184.24078847 -61.25195312 178.90014648 C-77.21667435 174.13015095 -90.72174824 163.49205061 -99 149 C-103.06696824 141.404209 -106.31770989 133.68768212 -108.8125 125.4375 C-109.00730957 124.80255615 -109.20211914 124.1676123 -109.40283203 123.51342773 C-112.71247619 111.83927761 -113.35114768 99.92499655 -113.31567383 87.86914062 C-113.31251219 85.63361803 -113.33609334 83.39942327 -113.36132812 81.1640625 C-113.48079827 53.612395 -105.15073828 27.89361395 -85.92578125 7.8359375 C-63.70974476 -13.43560945 -25.69436782 -18.00099606 0 0 Z " fill="#56018A" transform="translate(1154,213)"/>
<path d="M0 0 C0.65226562 0.43957031 1.30453125 0.87914062 1.9765625 1.33203125 C11.39585048 8.53135488 17.5233653 21.61305182 20 33 C21.16800796 46.35395585 20.40463632 58.48955085 11.625 69.22265625 C5.8045944 75.58872488 -0.37267584 80.24451231 -9.11328125 81.41796875 C-17.74801919 81.79339214 -24.17752401 80.0255414 -30.84375 74.4609375 C-36.76730958 68.33411852 -38.13563706 60.77688702 -38.4375 52.5 C-38.31334908 46.34357478 -36.7622462 41.46283513 -34 36 C-33.34 36 -32.68 36 -32 36 C-31.2575 36.825 -30.515 37.65 -29.75 38.5 C-27.21688749 41.27647915 -27.21688749 41.27647915 -23.8125 41.4375 C-20.86963998 41.26298437 -20.86963998 41.26298437 -19 39 C-18.64486621 37.09178939 -18.64486621 37.09178939 -18.6875 35 C-18.66236328 33.948125 -18.66236328 33.948125 -18.63671875 32.875 C-18.75660156 32.25625 -18.87648438 31.6375 -19 31 C-23.53708263 27.97527825 -27.6890514 28.23533463 -33 29 C-39.8820339 31.49719516 -44.33810244 35.57284522 -47.65161133 42.06298828 C-52.38212453 52.36682204 -53.63592986 61.99047701 -53.5 73.25 C-53.51546875 74.54679687 -53.5309375 75.84359375 -53.546875 77.1796875 C-53.51622538 84.70416986 -52.81512299 90.46483561 -49 97 C-48.4225 98.051875 -47.845 99.10375 -47.25 100.1875 C-42.84750072 105.6906241 -37.81310486 109.14574674 -31 111 C-21.29937116 112.0709295 -12.65184573 110.82071814 -4.4921875 105.3046875 C1.18499875 100.67675019 4.17433762 95.6726485 7 89 C7.6575501 87.66214721 8.32118508 86.32718971 9 85 C16.06464033 94.98845157 17.35600083 104.93686869 17.375 116.875 C17.37741699 118.33667603 17.37741699 118.33667603 17.37988281 119.82788086 C17.10498435 137.66726377 9.19873389 153.37856395 -2.75 166.3125 C-16.62279293 179.3838766 -33.85716222 184.61169987 -52.55859375 184.2421875 C-67.90681887 183.16206269 -80.35683599 175.80774902 -91 165 C-92.06347656 163.93458984 -92.06347656 163.93458984 -93.1484375 162.84765625 C-110.91507911 144.02590757 -116.28111567 118.55310313 -116.4375 93.5 C-116.44765137 92.35571533 -116.45780273 91.21143066 -116.46826172 90.0324707 C-116.38579112 82.00087956 -115.02869229 74.7513421 -113 67 C-112.73058594 65.741875 -112.46117187 64.48375 -112.18359375 63.1875 C-106.29876253 38.04602212 -91.36764376 13.82298945 -69.27368164 0.00634766 C-47.81772679 -12.81959109 -21.23070937 -14.38326215 0 0 Z " fill="#56018A" transform="translate(1316,210)"/>
<path d="M0 0 C7.62862099 5.3603101 12.09737038 12.59836912 14.6015625 21.52734375 C15.75924849 32.01382496 13.88403518 41.13726021 7.8515625 49.83984375 C1.70930905 57.3487486 -6.64184818 62.74128303 -16.38671875 63.875 C-27.28559336 64.19351857 -36.49708559 60.97557541 -44.53515625 53.5546875 C-52.35513274 45.35888958 -55.01521157 37.62099267 -54.87158203 26.35913086 C-54.61921403 20.61946404 -53.48757777 16.3348183 -50.3984375 11.52734375 C-49.7796875 10.50253906 -49.7796875 10.50253906 -49.1484375 9.45703125 C-37.99228589 -7.21380894 -16.58399099 -10.18267851 0 0 Z " fill="#57018A" transform="translate(1045.3984375,443.47265625)"/>
<path d="M0 0 C2.57886546 2.57886546 3.7289197 4.0791038 5.3036499 7.21289062 C5.95568642 8.49993896 5.95568642 8.49993896 6.62089539 9.81298828 C7.32240471 11.22040283 7.32240471 11.22040283 8.03808594 12.65625 C8.78730064 14.1419751 8.78730064 14.1419751 9.551651 15.65771484 C11.20218086 18.9353583 12.8436968 22.21741526 14.484375 25.5 C15.62567837 27.77550959 16.76722206 30.05089866 17.90899658 32.32617188 C20.30043032 37.09558495 22.68716234 41.86731424 25.07080078 46.640625 C27.82804533 52.16176457 30.59706363 57.67688395 33.37177634 63.18926239 C36.04013915 68.4916448 38.69742625 73.79952373 41.35041046 79.10961914 C42.48121337 81.3695264 43.61522245 83.62783222 44.75243378 85.88452148 C46.33765287 89.03294041 47.9101546 92.18739187 49.47949219 95.34375 C49.95526199 96.28202637 50.4310318 97.22030273 50.92121887 98.18701172 C51.55633644 99.47406006 51.55633644 99.47406006 52.20428467 100.78710938 C52.57740154 101.53263062 52.95051842 102.27815186 53.33494186 103.04626465 C54 105 54 105 53 108 C51.01660156 108.97973633 51.01660156 108.97973633 48.390625 109.83203125 C47.41802734 110.15284668 46.44542969 110.47366211 45.44335938 110.80419922 C44.38955078 111.13693848 43.33574219 111.46967773 42.25 111.8125 C41.17556641 112.16070801 40.10113281 112.50891602 38.99414062 112.86767578 C26.10948187 117.00159848 13.12643302 120.71839175 0 124 C0 83.08 0 42.16 0 0 Z " fill="#57028B" transform="translate(215,499)"/>
<path d="M0 0 C0 3.38153125 -0.50531538 4.11381156 -2.3605957 6.82763672 C-3.14055908 7.97983955 -3.14055908 7.97983955 -3.9362793 9.15531921 C-4.79733276 10.40488152 -4.79733276 10.40488152 -5.67578125 11.6796875 C-6.26810547 12.55144119 -6.86042969 13.42319489 -7.47070312 14.32136536 C-8.74693626 16.19838088 -10.02623952 18.07331181 -11.30825806 19.94638062 C-14.66725944 24.85458873 -18.00411944 29.77781968 -21.34375 34.69921875 C-22.0075618 35.67613174 -22.6713736 36.65304474 -23.3553009 37.65956116 C-28.75645995 45.61624051 -34.06410484 53.62950238 -39.3125 61.6875 C-40.0594555 62.83093874 -40.80660486 63.97425085 -41.55395508 65.11743164 C-44.47414149 69.58730454 -47.39126258 74.05909431 -50.29443359 78.54003906 C-51.80670235 80.8733328 -53.32438312 83.20291981 -54.84838867 85.52856445 C-56.24633498 87.66220518 -57.63629723 89.8011061 -59.0168457 91.94604492 C-59.63003662 92.87779541 -60.24322754 93.8095459 -60.875 94.76953125 C-61.40867188 95.59042236 -61.94234375 96.41131348 -62.4921875 97.25708008 C-62.98976562 97.83224365 -63.48734375 98.40740723 -64 99 C-67.47477806 99 -67.73086385 98.65645638 -70.1171875 96.359375 C-70.71748779 95.78936768 -71.31778809 95.21936035 -71.9362793 94.63208008 C-72.57605713 94.01099365 -73.21583496 93.38990723 -73.875 92.75 C-75.2327117 91.45665195 -76.59079097 90.16368966 -77.94921875 88.87109375 C-78.63032715 88.21866699 -79.31143555 87.56624023 -80.01318359 86.89404297 C-82.87408076 84.16673402 -85.77785347 81.48757659 -88.6875 78.8125 C-89.20836182 78.33087402 -89.72922363 77.84924805 -90.26586914 77.35302734 C-92.98467644 74.84095255 -95.7194532 72.34891288 -98.4765625 69.87890625 C-99.03641846 69.37447998 -99.59627441 68.87005371 -100.1730957 68.3503418 C-101.24298508 67.38752102 -102.31687926 66.42912656 -103.39526367 65.47583008 C-104.63464709 64.35775249 -105.8228957 63.18346703 -107 62 C-107 61.34 -107 60.68 -107 60 C-106.45400146 59.70456299 -105.90800293 59.40912598 -105.34545898 59.10473633 C-92.79674345 52.30680906 -80.32337014 45.38969782 -67.91015625 38.34765625 C-61.82720652 34.89757972 -55.72793195 31.4770771 -49.625 28.0625 C-48.59568359 27.48636963 -47.56636719 26.91023926 -46.50585938 26.31665039 C-41.10039252 23.29186228 -35.6932563 20.2700773 -30.28515625 17.25 C-29.18026855 16.6324585 -28.07538086 16.01491699 -26.93701172 15.37866211 C-24.84933092 14.21185088 -22.7611562 13.04592269 -20.67236328 11.88110352 C-13.73337411 8.00185818 -6.85463977 4.02631669 0 0 Z " fill="#57028B" transform="translate(207,326)"/>
<path d="M0 0 C3.62825539 0.67731721 6.37383714 2.21447885 9.55078125 4.0625 C10.63351318 4.68954834 11.71624512 5.31659668 12.83178711 5.96264648 C13.9921398 6.64156771 15.15237493 7.3206899 16.3125 8 C17.50836965 8.69569526 18.70441556 9.3910876 19.90063477 10.08618164 C26.92279494 14.17277937 33.91522935 18.30668817 40.8671875 22.51171875 C46.5774523 25.96050709 52.32264594 29.35078823 58.0625 32.75 C58.93468674 33.26673782 58.93468674 33.26673782 59.82449341 33.79391479 C65.93784782 37.41583927 72.05370624 41.03345198 78.17578125 44.640625 C94.61520689 54.32762533 94.61520689 54.32762533 101.875 58.75 C102.88304687 59.36359375 103.89109375 59.9771875 104.9296875 60.609375 C105.61289062 61.06828125 106.29609375 61.5271875 107 62 C107 62.33 107 62.66 107 63 C98.92518221 63.11235551 90.98264971 62.79714118 82.9375 62.12890625 C72.25521751 61.29100206 61.57173379 60.58271517 50.875 59.96484375 C50.14578339 59.92253254 49.41656677 59.88022133 48.66525269 59.83662796 C43.44367026 59.53395658 38.22185706 59.23538929 33 58.9375 C27.71344804 58.63552775 22.42698946 58.33202186 17.14068604 58.02572823 C15.06767016 57.90624411 12.99453799 57.78896718 10.92138672 57.67185974 C3.59851742 57.24889871 -3.70071315 56.72657354 -11 56 C-10.49900082 45.43831926 -7.95163063 35.42905014 -5.5 25.1875 C-4.87301487 22.5417579 -4.24817115 19.89552729 -3.62512207 17.24885559 C-3.23940917 15.61319308 -2.85112778 13.97813334 -2.45983887 12.34379578 C-1.48636539 8.24452691 -0.63369772 4.16921676 0 0 Z " fill="#57028A" transform="translate(243,170)"/>
<path d="M0 0 C10.92542109 -0.18264158 21.7656413 0.39048316 32.66796875 1.0234375 C34.55681839 1.13093087 36.44567868 1.23823714 38.33454895 1.34536743 C42.27729737 1.56988674 46.21987419 1.79717307 50.16235352 2.02636719 C55.16292011 2.31677956 60.16388717 2.59949251 65.16501904 2.87998009 C69.06307374 3.09962221 72.96085498 3.32385317 76.85857582 3.54933548 C78.69968579 3.65523989 80.54087949 3.75970085 82.38216209 3.86256027 C94.30978197 4.53168661 106.14048689 5.55677615 118 7 C117.43834682 15.31923497 115.66656093 23.11417381 113.625 31.1875 C111.17328011 41.08860446 108.82032801 50.96219125 107 61 C102.88253544 61 101.83648495 60.61765462 98.421875 58.6484375 C97.52090088 58.13418213 96.61992676 57.61992676 95.69165039 57.09008789 C94.72090576 56.52410889 93.75016113 55.95812988 92.75 55.375 C91.73220459 54.79032959 90.71440918 54.20565918 89.66577148 53.60327148 C86.43815259 51.74517035 83.21835954 49.87408639 80 48 C78.99662598 47.41782715 77.99325195 46.8356543 76.95947266 46.23583984 C70.96255144 42.75595015 64.97621734 39.25826423 58.99414062 35.75292969 C55.08149515 33.46225825 51.16419246 31.17962759 47.24658203 28.89746094 C44.3012809 27.18096159 41.3575692 25.46176186 38.4140625 23.7421875 C34.33690787 21.36094334 30.25562044 18.98701086 26.1709137 16.61875916 C23.49646365 15.06703535 20.82427039 13.51145185 18.1524353 11.95523071 C16.85150394 11.19865912 15.54961506 10.44373139 14.24673462 9.69052124 C12.42628277 8.6378087 10.60930312 7.57932783 8.79296875 6.51953125 C7.7464917 5.91214111 6.70001465 5.30475098 5.62182617 4.67895508 C3.38268093 3.24505976 1.81705529 1.89719539 0 0 Z " fill="#58038B" transform="translate(371,578)"/>
<path d="M0 0 C0 40.59 0 81.18 0 123 C-2.61123333 119.51835556 -4.54741206 116.14943065 -6.44140625 112.27734375 C-6.76858139 111.6177919 -7.09575653 110.95824005 -7.43284607 110.27870178 C-8.47990998 108.16684499 -9.52162792 106.05241454 -10.5625 103.9375 C-14.84244976 95.2588564 -19.17121266 86.61672757 -23.703125 78.06640625 C-29.43747893 67.23738307 -34.98688525 56.31700219 -40.49047852 45.36914062 C-41.63732241 43.09228179 -42.78847978 40.81759129 -43.94360352 38.54492188 C-45.63212915 35.22217922 -47.30772776 31.89321101 -48.98046875 28.5625 C-49.50110397 27.54389893 -50.0217392 26.52529785 -50.55815125 25.47583008 C-51.02646866 24.53634521 -51.49478607 23.59686035 -51.97729492 22.62890625 C-52.3934758 21.80463135 -52.80965668 20.98035645 -53.2384491 20.13110352 C-54 18 -54 18 -53 15 C-50.83203125 14.078125 -50.83203125 14.078125 -47.8125 13.25 C-46.64332031 12.91484375 -45.47414063 12.5796875 -44.26953125 12.234375 C-43.60131348 12.04423828 -42.9330957 11.85410156 -42.24462891 11.65820312 C-37.80377161 10.35598959 -33.4060936 8.91445406 -29 7.5 C-27.09520621 6.89404655 -25.19026101 6.28856882 -23.28515625 5.68359375 C-20.14404011 4.68503768 -17.00572905 3.67885382 -13.87109375 2.66015625 C-12.73800781 2.29792969 -11.60492188 1.93570313 -10.4375 1.5625 C-9.48746094 1.25441406 -8.53742188 0.94632813 -7.55859375 0.62890625 C-5 0 -5 0 0 0 Z " fill="#56018A" transform="translate(505,187)"/>
<path d="M0 0 C2.90121088 1.32972165 5.12744003 2.8094802 7.5 4.9375 C8.19351563 5.55753906 8.88703125 6.17757813 9.6015625 6.81640625 C13.40363816 10.2779051 17.19572298 13.75005108 20.98046875 17.23046875 C28.24483905 23.90390203 35.61861417 30.45659758 43 37 C39.67798768 39.76390525 36.35262839 42.08024189 32.59765625 44.21484375 C31.03217041 45.11021851 31.03217041 45.11021851 29.43505859 46.02368164 C27.76564209 46.97102173 27.76564209 46.97102173 26.0625 47.9375 C23.70057847 49.28689199 21.34052975 50.63954476 18.98046875 51.9921875 C18.38764099 52.33147781 17.79481323 52.67076813 17.184021 53.02033997 C11.71830377 56.15195761 6.29167235 59.34701923 0.875 62.5625 C-6.69186075 67.04941679 -14.27454895 71.50769865 -21.875 75.9375 C-22.85839355 76.51097168 -23.84178711 77.08444336 -24.85498047 77.67529297 C-30.13649318 80.7536653 -35.42194643 83.82511905 -40.7109375 86.890625 C-41.8055127 87.52621338 -42.90008789 88.16180176 -44.02783203 88.81665039 C-46.12914051 90.03670849 -48.2316258 91.2547427 -50.33544922 92.47045898 C-51.28178223 93.02032471 -52.22811523 93.57019043 -53.203125 94.13671875 C-54.03489258 94.61842529 -54.86666016 95.10013184 -55.72363281 95.59643555 C-57.92198032 96.95189456 -59.96169492 98.41624515 -62 100 C-62.66 99.67 -63.32 99.34 -64 99 C-56.4193206 86.94318596 -48.75946016 74.942427 -41 63 C-34.63135159 53.18909953 -28.3009424 43.35454396 -22 33.5 C-17.23903333 26.05614149 -12.47767921 18.61260633 -7.6875 11.1875 C-7.03104492 10.1665625 -7.03104492 10.1665625 -6.36132812 9.125 C-4.34098433 5.99942825 -2.28658793 2.9377845 0 0 Z " fill="#57028B" transform="translate(580,384)"/>
<path d="M0 0 C6.35753255 3.24363906 10.13293916 8.22726151 12.625 14.8125 C19.22589034 37.29324652 20.70350824 64.59298352 10 86 C7.29802656 90.23309172 4.73010413 92.27169272 0 94 C-3.93455896 94.56207985 -6.35239912 94.83741698 -9.890625 93.0390625 C-15.37325368 88.91517223 -17.75498975 83.32385671 -20 77 C-20.32097656 76.10152344 -20.64195313 75.20304687 -20.97265625 74.27734375 C-25.65237218 58.10511616 -24.12481791 39.13811246 -20 23 C-19.77183594 22.03964844 -19.54367187 21.07929688 -19.30859375 20.08984375 C-16.96575123 11.21381753 -11.11719372 -2.08447382 0 0 Z " fill="#F2F1F3" transform="translate(1118,247)"/>
<path d="M0 0 C2.9651031 1.48255155 3.13731641 3.50917047 4.27734375 6.58203125 C4.70853516 7.74283203 5.13972656 8.90363281 5.58398438 10.09960938 C6.03064453 11.32486328 6.47730469 12.55011719 6.9375 13.8125 C7.38029297 14.99521484 7.82308594 16.17792969 8.27929688 17.39648438 C17.16239622 41.53044876 17.16239622 41.53044876 13.13671875 51.0390625 C11.43506396 54.23212902 10.03428729 55.9771418 7 58 C0.00861394 58.78935004 0.00861394 58.78935004 -3.875 55.75 C-9.20845718 48.84787894 -8.91761257 41.40736252 -8 33 C-6.92416755 27.3262646 -5.24993149 21.80795504 -3.6328125 16.27001953 C-2.13972092 10.91401432 -1.09336498 5.44904663 0 0 Z " fill="#F0EDF2" transform="translate(887,534)"/>
</svg>
